<svg xmlns="http://www.w3.org/2000/svg" xmlns:xlink="http://www.w3.org/1999/xlink" xmlns:inkscape="http://www.inkscape.org/namespaces/inkscape" version="1.1" width="900" height="464.87998" viewBox="0 0 900 464.87998">
<defs>
<clipPath id="clip_1">
<path transform="matrix(.24,0,0,.24,0,0)" d="M0 0H3750V1937.5H0Z" clip-rule="evenodd"/>
</clipPath>
<clipPath id="clip_2">
<path transform="matrix(.24,0,0,.24,0,0)" d="M0 0H3750V1937.5H0Z" clip-rule="evenodd"/>
</clipPath>
<clipPath id="clip_3">
<path transform="matrix(.24,0,0,.24,0,0)" d="M593.75 343.75H3156.25V1189.375H593.75Z" clip-rule="evenodd"/>
</clipPath>
<clipPath id="clip_4">
<path transform="matrix(.24,0,0,.24,0,0)" d="M0 0H3750V1937.5H0Z" clip-rule="evenodd"/>
</clipPath>
<g id="font_5_62">
<path transform="matrix(.001,0,0,-.001,0,0)" d="M76 0V-686H582V-564H225V-394H543L544-273H225V0H76Z"/>
</g>
<g id="font_5_111">
<path transform="matrix(.001,0,0,-.001,0,0)" d="M396 12C323.3333 12 260.66667-1 208-27 155.33333-52.999998 115-92.33333 87-145 59-197.66666 45-263.66667 45-343 45-423.6667 59-490.16667 87-542.5 114.99999-594.8333 155.33332-633.8333 208-659.5 260.66667-685.1666 323.3333-697.99996 396-698 469.99998-698 533.1666-685.1667 585.5-659.5 637.8333-633.8333 678-594.8333 706-542.5 734-490.16667 748-423.6667 748-343 748-263.66667 734-197.66666 706-145 678-92.33333 637.8333-52.999998 585.5-27 533.1666-1 469.99998 12 396 12ZM396-110C428.66667-110 457.33335-114.666667 482-124 506.66664-133.33333 527.3333-147.33333 544-166 560.6666-184.66666 573.3333-207.49999 582-234.5 590.6666-261.5 594.99996-292.33335 595-327V-358C595-393.3333 590.6667-424.66667 582-452 573.3333-479.3333 560.6667-502.16667 544-520.5 527.3333-538.8333 506.66667-552.6667 482-562 457.3333-571.3333 428.66667-576 396-576 364-576 335.66667-571.3333 311-562 286.3333-552.6666 265.66667-538.8333 249-520.5 232.33333-502.16667 219.83333-479.33335 211.5-452 203.16666-424.66664 198.99999-393.33329 199-358V-327C199-292.3333 203.16667-261.49998 211.5-234.5 219.83333-207.5 232.33333-184.66667 249-166 265.66667-147.33333 286.33335-133.33333 311-124 335.66667-114.666667 364-110 396-110Z"/>
</g>
<g id="font_5_146">
<path transform="matrix(.001,0,0,-.001,0,0)" d="M76 0V-686H452C502.66664-686 544.8333-677 578.5-659 612.1666-641 637.3333-615.8333 654-583.5 670.6666-551.1666 678.99996-513.99996 679-472 679-427.3333 669-387.8333 649-353.5 629-319.16667 600-293 562-275L702 0H537L416-250H225V0H76ZM225-368H432C461.99998-368 485.33329-377.16667 502-395.5 518.6666-413.8333 526.99996-438.66667 527-470 527-490 523.3333-507.16667 516-521.5 508.66667-535.8333 498-546.6667 484-554 470-561.3333 452.66667-565 432-565H225V-368Z"/>
</g>
<g id="font_6_109">
</g>
<g id="font_5_101">
<path transform="matrix(.001,0,0,-.001,0,0)" d="M76 0V-686H303L401-335C405-322.3333 409-307.3333 413-290 417-272.66667 421.16667-255.5 425.5-238.5 429.8333-221.49999 433.3333-206.33332 436-193H444C445.3333-204.33332 447.66667-217.83332 451-233.5 454.3333-249.16667 457.99998-266 462-284 465.99998-302 470.33329-319.33335 475-336L573-686H796V0H649V-325C649-355 649.1667-385.16667 649.5-415.5 649.8333-445.8333 650.5-472.3333 651.5-495 652.5-517.6666 653-532.3333 653-539H645C643.6666-531.6666 640.49996-518.1666 635.5-498.5 630.5-478.8333 625.1667-457.99998 619.5-436 613.8333-414 608.6667-395 604-379L497 0H367L259-378C255-391.99998 250.5-408.49998 245.5-427.5 240.5-446.49998 235.83333-466.16664 231.5-486.5 227.16666-506.83335 222.99999-524.3333 219-539H211C211.66666-521 212.33333-499.5 213-474.5 213.66666-449.5 214.33333-423.83335 215-397.5 215.66666-371.16667 215.99999-347 216-325V0H76Z"/>
</g>
<g id="font_5_42">
<path transform="matrix(.001,0,0,-.001,0,0)" d="M76 0V-686H624V-564H226V-411L578-410V-290H226V-123L630-122V0H76Z"/>
</g>
<g id="font_5_102">
<path transform="matrix(.001,0,0,-.001,0,0)" d="M76 0V-686H213L489-316C492.99998-311.3333 497.99998-304.8333 504-296.5 509.99998-288.16667 515.6666-280 521-272 526.3333-264 530-257.66667 532-253H537C537-264.3333 537-275.49998 537-286.5 537-297.5 537-307.33335 537-316V-686H678V0H541L259-379C252.33332-388.3333 245.33332-398.66667 238-410 230.66666-421.3333 225.33333-429.99998 222-436H217C217-426 217-416.16667 217-406.5 217-396.8333 217-387.66667 217-379V0H76Z"/>
</g>
</defs>
<path transform="matrix(.75,0,0,.75,0,0)" d="M0 0H1200V620H0Z" fill="#f7f3ee"/>
<g clip-path="url(#clip_1)">
<path transform="matrix(.75,0,0,.75,0,0)" d="M0 0H1200V624H0Z" fill="#f7f3ee"/>
</g>
<g clip-path="url(#clip_2)">
<path transform="matrix(.75,0,0,.75,0,0)" d="M0 0H1200V620H0Z" fill="#f7f3ee"/>
</g>
<g clip-path="url(#clip_3)">
<path transform="matrix(.14642857,0,0,.14642857,118.19285,75.251789)" d="M3150 180 3152 201 3271 203 3638 802V1357L3495 1358 3494 1379H3950L3949 1358 3789 1357V766L4115 203 4245 201 4246 180H3917V201L4091 203 3777 747 3445 202 3613 201 3614 180H3150ZM286 180 287 201 435 202 805 1395 830 1393 1048 794 1235 1393 1258 1395 1682 201H1813V180H1499L1500 201H1656L1657 204 1320 1154 1149 603 1284 202 1417 201V180H286ZM1258 201 1137 565 1024 202 1258 201ZM595 201H865L1037 753 892 1154 601 227 595 201ZM2452 157H2430L2010 1355 2008 1358H1860L1859 1379H2210V1358L2033 1357 2158 999 2578 1000 2693 1357 2526 1358 2525 1379H2988V1358L2867 1357 2452 157ZM2375 375 2570 977 2166 978 2375 375Z" fill="#2a1f18" fill-rule="evenodd"/>
</g>
<g clip-path="url(#clip_4)">
<use data-text="F" xlink:href="#font_5_62" transform="matrix(31.5,0,0,-31.5,342.6328,339)" fill="#c4714a"/>
<use data-text="O" xlink:href="#font_5_111" transform="matrix(31.5,0,0,-31.5,371.9758,339)" fill="#c4714a"/>
<use data-text="R" xlink:href="#font_5_146" transform="matrix(31.5,0,0,-31.5,406.70533,339)" fill="#c4714a"/>
<use data-text=" " xlink:href="#font_6_109" transform="matrix(31.5,0,0,-31.5,439.4503,339)" fill="#c4714a"/>
<use data-text="M" xlink:href="#font_5_101" transform="matrix(31.5,0,0,-31.5,455.37428,339)" fill="#c4714a"/>
<use data-text="E" xlink:href="#font_5_42" transform="matrix(31.5,0,0,-31.5,492.59226,339)" fill="#c4714a"/>
<use data-text="N" xlink:href="#font_5_102" transform="matrix(31.5,0,0,-31.5,523.85678,339)" fill="#c4714a"/>
</g>
</svg>
